<mxfile host="app.diagrams.net" modified="2024-04-15T13:26:19.507Z" agent="Mozilla/5.0 (Windows NT 10.0; Win64; x64) AppleWebKit/537.36 (KHTML, like Gecko) Chrome/123.0.0.0 Safari/537.36" etag="IJNOnqxU_sHjZ_HAaf-I" version="24.2.2" type="github">
  <diagram name="Trang-1" id="LW98Dkfxkwu2BAPP_Cws">
    <mxGraphModel dx="1075" dy="435" grid="1" gridSize="10" guides="1" tooltips="1" connect="1" arrows="1" fold="1" page="1" pageScale="1" pageWidth="827" pageHeight="1169" math="0" shadow="0">
      <root>
        <mxCell id="0" />
        <mxCell id="1" parent="0" />
        <mxCell id="bn9pI4y0K-edtLlhM-9a-1" value="&amp;lt;&amp;lt;boundary&amp;gt;&amp;gt;&lt;br&gt;&lt;b&gt;ExperienceEvaluationBoundary&lt;/b&gt;" style="swimlane;fontStyle=0;align=center;verticalAlign=top;childLayout=stackLayout;horizontal=1;startSize=55;horizontalStack=0;resizeParent=1;resizeParentMax=0;resizeLast=0;collapsible=0;marginBottom=0;html=1;whiteSpace=wrap;" vertex="1" parent="1">
          <mxGeometry x="100" y="150" width="200" height="120" as="geometry" />
        </mxCell>
        <mxCell id="bn9pI4y0K-edtLlhM-9a-6" value="" style="line;strokeWidth=1;fillColor=none;align=left;verticalAlign=middle;spacingTop=-1;spacingLeft=3;spacingRight=3;rotatable=0;labelPosition=right;points=[];portConstraint=eastwest;" vertex="1" parent="bn9pI4y0K-edtLlhM-9a-1">
          <mxGeometry y="55" width="200" height="8" as="geometry" />
        </mxCell>
        <mxCell id="bn9pI4y0K-edtLlhM-9a-8" value="//chấp nhận()&lt;div&gt;//gửi kết quả đánh giá()&lt;/div&gt;" style="text;html=1;strokeColor=none;fillColor=none;align=left;verticalAlign=middle;spacingLeft=4;spacingRight=4;overflow=hidden;rotatable=0;points=[[0,0.5],[1,0.5]];portConstraint=eastwest;whiteSpace=wrap;" vertex="1" parent="bn9pI4y0K-edtLlhM-9a-1">
          <mxGeometry y="63" width="200" height="57" as="geometry" />
        </mxCell>
        <mxCell id="bn9pI4y0K-edtLlhM-9a-13" value="&amp;lt;&amp;lt;control&amp;gt;&amp;gt;&lt;br&gt;&lt;b&gt;BookingCarControl&lt;/b&gt;" style="swimlane;fontStyle=0;align=center;verticalAlign=top;childLayout=stackLayout;horizontal=1;startSize=55;horizontalStack=0;resizeParent=1;resizeParentMax=0;resizeLast=0;collapsible=0;marginBottom=0;html=1;whiteSpace=wrap;" vertex="1" parent="1">
          <mxGeometry x="380" y="160" width="140" height="100" as="geometry" />
        </mxCell>
        <mxCell id="bn9pI4y0K-edtLlhM-9a-14" value="" style="line;strokeWidth=1;fillColor=none;align=left;verticalAlign=middle;spacingTop=-1;spacingLeft=3;spacingRight=3;rotatable=0;labelPosition=right;points=[];portConstraint=eastwest;" vertex="1" parent="bn9pI4y0K-edtLlhM-9a-13">
          <mxGeometry y="55" width="140" height="8" as="geometry" />
        </mxCell>
        <mxCell id="bn9pI4y0K-edtLlhM-9a-16" value="//yêu cầu thêm đánh giá()" style="text;html=1;strokeColor=none;fillColor=none;align=left;verticalAlign=middle;spacingLeft=4;spacingRight=4;overflow=hidden;rotatable=0;points=[[0,0.5],[1,0.5]];portConstraint=eastwest;whiteSpace=wrap;" vertex="1" parent="bn9pI4y0K-edtLlhM-9a-13">
          <mxGeometry y="63" width="140" height="37" as="geometry" />
        </mxCell>
        <mxCell id="bn9pI4y0K-edtLlhM-9a-18" value="&amp;lt;&amp;lt;entity&amp;gt;&amp;gt;&lt;br&gt;&lt;b&gt;BookingCar&lt;/b&gt;" style="swimlane;fontStyle=0;align=center;verticalAlign=top;childLayout=stackLayout;horizontal=1;startSize=55;horizontalStack=0;resizeParent=1;resizeParentMax=0;resizeLast=0;collapsible=0;marginBottom=0;html=1;whiteSpace=wrap;" vertex="1" parent="1">
          <mxGeometry x="610" y="130" width="140" height="175" as="geometry" />
        </mxCell>
        <mxCell id="bn9pI4y0K-edtLlhM-9a-22" value="ID&lt;div&gt;biển số&lt;/div&gt;&lt;div&gt;mẫu xe&lt;/div&gt;&lt;div&gt;tài xế&lt;/div&gt;" style="text;html=1;strokeColor=none;fillColor=none;align=left;verticalAlign=middle;spacingLeft=4;spacingRight=4;overflow=hidden;rotatable=0;points=[[0,0.5],[1,0.5]];portConstraint=eastwest;whiteSpace=wrap;" vertex="1" parent="bn9pI4y0K-edtLlhM-9a-18">
          <mxGeometry y="55" width="140" height="65" as="geometry" />
        </mxCell>
        <mxCell id="bn9pI4y0K-edtLlhM-9a-23" value="" style="line;strokeWidth=1;fillColor=none;align=left;verticalAlign=middle;spacingTop=-1;spacingLeft=3;spacingRight=3;rotatable=0;labelPosition=right;points=[];portConstraint=eastwest;" vertex="1" parent="bn9pI4y0K-edtLlhM-9a-18">
          <mxGeometry y="120" width="140" height="8" as="geometry" />
        </mxCell>
        <mxCell id="bn9pI4y0K-edtLlhM-9a-25" value="//gửi ID chuyến xe()&lt;div&gt;//nhận đánh giá()&lt;/div&gt;" style="text;html=1;strokeColor=none;fillColor=none;align=left;verticalAlign=middle;spacingLeft=4;spacingRight=4;overflow=hidden;rotatable=0;points=[[0,0.5],[1,0.5]];portConstraint=eastwest;whiteSpace=wrap;" vertex="1" parent="bn9pI4y0K-edtLlhM-9a-18">
          <mxGeometry y="128" width="140" height="47" as="geometry" />
        </mxCell>
        <mxCell id="bn9pI4y0K-edtLlhM-9a-27" value="" style="endArrow=none;html=1;rounded=0;entryX=0;entryY=0.5;entryDx=0;entryDy=0;exitX=1;exitY=0.5;exitDx=0;exitDy=0;" edge="1" parent="1" source="bn9pI4y0K-edtLlhM-9a-1" target="bn9pI4y0K-edtLlhM-9a-13">
          <mxGeometry width="50" height="50" relative="1" as="geometry">
            <mxPoint x="390" y="300" as="sourcePoint" />
            <mxPoint x="440" y="250" as="targetPoint" />
          </mxGeometry>
        </mxCell>
        <mxCell id="bn9pI4y0K-edtLlhM-9a-28" value="" style="endArrow=none;html=1;rounded=0;entryX=-0.006;entryY=0.372;entryDx=0;entryDy=0;entryPerimeter=0;exitX=1;exitY=0.5;exitDx=0;exitDy=0;" edge="1" parent="1" source="bn9pI4y0K-edtLlhM-9a-13" target="bn9pI4y0K-edtLlhM-9a-22">
          <mxGeometry width="50" height="50" relative="1" as="geometry">
            <mxPoint x="530" y="218.69" as="sourcePoint" />
            <mxPoint x="620" y="216.31" as="targetPoint" />
          </mxGeometry>
        </mxCell>
        <mxCell id="bn9pI4y0K-edtLlhM-9a-30" value="0..1" style="edgeLabel;html=1;align=center;verticalAlign=middle;resizable=0;points=[];rotation=0;" vertex="1" connectable="0" parent="1">
          <mxGeometry x="350" y="210" as="geometry">
            <mxPoint x="19" y="-14" as="offset" />
          </mxGeometry>
        </mxCell>
        <mxCell id="bn9pI4y0K-edtLlhM-9a-33" value="1" style="edgeLabel;html=1;align=center;verticalAlign=middle;resizable=0;points=[];rotation=0;" vertex="1" connectable="0" parent="1">
          <mxGeometry x="290" y="210" as="geometry">
            <mxPoint x="19" y="-14" as="offset" />
          </mxGeometry>
        </mxCell>
        <mxCell id="bn9pI4y0K-edtLlhM-9a-34" value="0..1" style="edgeLabel;html=1;align=center;verticalAlign=middle;resizable=0;points=[];rotation=0;" vertex="1" connectable="0" parent="1">
          <mxGeometry x="510" y="210" as="geometry">
            <mxPoint x="19" y="-14" as="offset" />
          </mxGeometry>
        </mxCell>
        <mxCell id="bn9pI4y0K-edtLlhM-9a-36" value="0..1" style="edgeLabel;html=1;align=center;verticalAlign=middle;resizable=0;points=[];rotation=0;" vertex="1" connectable="0" parent="1">
          <mxGeometry x="580" y="210" as="geometry">
            <mxPoint x="19" y="-14" as="offset" />
          </mxGeometry>
        </mxCell>
      </root>
    </mxGraphModel>
  </diagram>
</mxfile>
